<?xml version="1.0" encoding="UTF-8" standalone="no"?>
<!-- Created with Inkscape (http://www.inkscape.org/) -->

<svg
   xmlns:dc="http://purl.org/dc/elements/1.1/"
   xmlns:cc="http://creativecommons.org/ns#"
   xmlns:rdf="http://www.w3.org/1999/02/22-rdf-syntax-ns#"
   xmlns:svg="http://www.w3.org/2000/svg"
   xmlns="http://www.w3.org/2000/svg"
   xmlns:sodipodi="http://sodipodi.sourceforge.net/DTD/sodipodi-0.dtd"
   xmlns:inkscape="http://www.inkscape.org/namespaces/inkscape"
   width="210mm"
   height="297mm"
   viewBox="0 0 744.09448819 1052.3622047"
   id="svg2"
   version="1.1"
   inkscape:version="0.91 r13725"
   sodipodi:docname="i58-logo.svg">
  <defs
     id="defs4" />
  <sodipodi:namedview
     id="base"
     pagecolor="#ffffff"
     bordercolor="#666666"
     borderopacity="1.0"
     inkscape:pageopacity="0.0"
     inkscape:pageshadow="2"
     inkscape:zoom="2.5924946"
     inkscape:cx="366.19327"
     inkscape:cy="412.96252"
     inkscape:document-units="px"
     inkscape:current-layer="layer1"
     showgrid="false"
     inkscape:window-width="1600"
     inkscape:window-height="838"
     inkscape:window-x="-8"
     inkscape:window-y="-8"
     inkscape:window-maximized="1" />
  <metadata
     id="metadata7">
    <rdf:RDF>
      <cc:Work
         rdf:about="">
        <dc:format>image/svg+xml</dc:format>
        <dc:type
           rdf:resource="http://purl.org/dc/dcmitype/StillImage" />
        <dc:title></dc:title>
      </cc:Work>
    </rdf:RDF>
  </metadata>
  <g
     inkscape:label="Layer 1"
     inkscape:groupmode="layer"
     id="layer1">
    <path
       inkscape:connector-curvature="0"
       id="path4149"
       d="m 282.46825,495.70967 0,-0.5 0.5,0 0.5,0 0.5,0 0.5,0 0.5,0 0.5,0 0.5,0 0.5,0 0.5,0 0.5,0 0.5,0 0.5,0 0.5,0 0.5,0 0.5,0 0.5,0 0.5,0 0.5,0 0.5,0 0.5,0 0.5,0 0.5,0 0.5,0 0.5,0 0.5,0 0.5,0 0.5,0 0.5,0 0.5,0 0.5,0 0.5,0 0.5,0 0.5,0 0.5,0 0.5,0 0.5,0 0.5,0 0.5,0 0.5,0 0.5,0 0.5,0 0.5,0 0.5,0 0.5,0 0.5,0 0.5,0 0.5,0 0.5,0 0.5,0 0.5,0 0.5,0 0.5,0 0.5,0 0.5,0 0.5,0 0.5,0 0.5,0 0.5,0 0.5,0 0.5,0 0.5,0 0.5,0 0.5,0 0.5,0 0.5,0 0.5,0 0.5,0 0.5,0 0.5,0 0.5,0 0.5,0 0.5,0 0.5,0 0.5,0 0.5,0 0.5,0 0.5,0 0.5,0 0.5,0 0.5,0 0.5,0 0.5,0 0.5,0 0.5,0 0.5,0 0.5,0 0.5,0 0.5,0 0.5,0 0.5,0 0.5,0 0.5,0 0.5,0 0.5,0 0.5,0 0.5,0 0.5,0 0.5,0 0.5,0 0.5,0 0.5,0 0.5,0 0.5,0 0.5,0 0.5,0 0.5,0 0.5,0 0.5,0 0.5,0 0.5,0 0.5,0 0.5,0 0.5,0 0.5,0 0.5,0 0.5,0 0.5,0 0.5,0 0.5,0 0.5,0 0.5,0 0.5,0 0.5,0 0.5,0 0.5,0 0.5,0 0.5,0 0.5,0 0.5,0 0.5,0 0.5,0 0.5,0 0.5,0 0.5,0 0.5,0 0.5,0 0.5,0 0.5,0 0.5,0 0.5,0 0.5,0 0.5,0 0.5,0 0.5,0 0.5,0 0.5,0 0.5,0 0.5,0 0.5,0 0.5,0 0.5,0 0.5,0 0.5,0 0.5,0 0.5,0 0.5,0 0.5,0 0.5,0 0.5,0 0.5,0 0.5,0 0.5,0 0.5,0 0.5,0 0.5,0 0.5,0 0.5,0 0.5,0 0.5,0 0.5,0 0.5,0 0.5,0 0.5,0 0.5,0 0.5,0 0.5,0 0.5,0 0.5,0 0.5,0 0.5,0 0.5,0 0.5,0 0.5,0 0.5,0 0.5,0 0.5,0 0.5,0 0.5,0 0.5,0 0.5,0 0.5,0 0.5,0 0.5,0 0.5,0 0.5,0 0.5,0 0.5,0 0.5,0 0,0.5 0,0.5 -0.5,0 -0.5,0 -0.5,0 q -0.5,0 -0.5,0.5 l 0,0.5 -0.5,0 q -0.5,0 -0.5,0.5 l 0,0.5 -0.5,0 q -0.5,0 -0.5,0.5 l 0,0.5 -0.5,0 q -0.5,0 -0.5,0.5 l 0,0.5 -0.5,0 -0.5,0 -0.5,0 q -0.5,0 -0.5,0.5 l 0,0.5 -0.5,0 q -0.5,0 -0.5,0.5 l 0,0.5 -0.5,0 q -0.5,0 -0.5,0.5 l 0,0.5 -0.5,0 -0.5,0 -0.5,0 q -0.5,0 -0.5,0.5 l 0,0.5 -0.5,0 q -0.5,0 -0.5,0.5 l 0,0.5 -0.5,0 -0.5,0 -0.5,0 q -0.5,0 -0.5,0.5 l 0,0.5 -0.5,0 -0.5,0 -0.5,0 q -0.5,0 -0.5,0.5 l 0,0.5 -0.5,0 -0.5,0 -0.5,0 q -0.5,0 -0.5,0.5 l 0,0.5 -0.5,0 -0.5,0 -0.5,0 -0.5,0 -0.5,0 q -0.5,0 -0.5,0.5 l 0,0.5 -0.5,0 -0.5,0 -0.5,0 q -0.5,0 -0.5,0.5 l 0,0.5 -0.5,0 -0.5,0 -0.5,0 -0.5,0 -0.5,0 -0.5,0 -0.5,0 q -0.5,0 -0.5,0.5 l 0,0.5 -0.5,0 -0.5,0 -0.5,0 -0.5,0 -0.5,0 -0.5,0 -0.5,0 -0.5,0 -0.5,0 -0.5,0 -0.5,0 -0.5,0 -0.5,0 -0.5,0 -0.5,0 -0.5,0 -0.5,0 -0.5,0 -0.5,0 -0.5,0 -0.5,0 -0.5,0 -0.5,0 -0.5,0 -0.5,0 -0.5,0 -0.5,0 -0.5,0 -0.5,0 -0.5,0 -0.5,0 -0.5,0 -0.5,0 -0.5,0 -0.5,0 -0.5,0 0,-0.5 q 0,-0.5 -0.5,-0.5 l -0.5,0 -0.5,0 -0.5,0 -0.5,0 -0.5,0 -0.5,0 -0.5,0 0,-0.5 q 0,-0.5 -0.5,-0.5 l -0.5,0 -0.5,0 -0.5,0 -0.5,0 -0.5,0 -0.5,0 -0.5,0 0,-0.5 q 0,-0.5 -0.5,-0.5 l -0.5,0 -0.5,0 -0.5,0 0,-0.5 q 0,-0.5 -0.5,-0.5 l -0.5,0 -0.5,0 -0.5,0 0,-0.5 q 0,-0.5 -0.5,-0.5 l -0.5,0 -0.5,0 -0.5,0 -0.5,0 -0.5,0 0,-0.5 q 0,-0.5 -0.5,-0.5 l -0.5,0 0,-0.5 q 0,-0.5 -0.5,-0.5 l -0.5,0 -0.5,0 -0.5,0 0,-0.5 q 0,-0.5 -0.5,-0.5 l -0.5,0 0,-0.5 q 0,-0.5 -0.5,-0.5 l -0.5,0 -0.5,0 -0.5,0 -0.5,0 q -0.5,0 -0.5,0.5 l 0,0.5 0,0.5 0,0.5 -0.5,0 q -0.5,0 -0.5,0.5 l 0,0.5 -0.5,0 q -0.5,0 -0.5,0.5 l 0,0.5 -0.5,0 q -0.5,0 -0.5,0.5 l 0,0.5 -0.5,0 q -0.5,0 -0.5,0.5 l 0,0.5 0,0.5 0,0.5 -0.5,0 q -0.5,0 -0.5,0.5 l 0,0.5 -0.5,0 q -0.5,0 -0.5,0.5 l 0,0.5 0,0.5 0,0.5 -0.5,0 q -0.5,0 -0.5,0.5 l 0,0.5 -0.5,0 q -0.5,0 -0.5,0.5 l 0,0.5 0,0.5 0,0.5 -0.5,0 q -0.5,0 -0.5,0.5 l 0,0.5 -0.5,0 q -0.5,0 -0.5,0.5 l 0,0.5 0,0.5 0,0.5 -0.5,0 q -0.5,0 -0.5,0.5 l 0,0.5 -0.5,0 q -0.5,0 -0.5,0.5 l 0,0.5 0,0.5 0,0.5 -0.5,0 q -0.5,0 -0.5,0.5 l 0,0.5 0,0.5 0,0.5 -0.5,0 q -0.5,0 -0.5,0.5 l 0,0.5 0,0.5 0,0.5 -0.5,0 q -0.5,0 -0.5,0.5 l 0,0.5 0,0.5 0,0.5 -0.5,0 q -0.5,0 -0.5,0.5 l 0,0.5 0,0.5 0,0.5 -0.5,0 q -0.5,0 -0.5,0.5 l 0,0.5 0,0.5 0,0.5 -0.5,0 q -0.5,0 -0.5,0.5 l 0,0.5 0,0.5 0,0.5 -0.5,0 q -0.5,0 -0.5,0.5 l 0,0.5 0,0.5 0,0.5 0,0.5 0,0.5 -0.5,0 q -0.5,0 -0.5,0.5 l 0,0.5 0,0.5 0,0.5 -0.5,0 q -0.5,0 -0.5,0.5 l 0,0.5 0,0.5 0,0.5 0,0.5 0,0.5 -0.5,0 q -0.5,0 -0.5,0.5 l 0,0.5 0,0.5 0,0.5 0,0.5 0,0.5 -0.5,0 q -0.5,0 -0.5,0.5 l 0,0.5 0,0.5 0,0.5 0,0.5 q 0,0.5 0.5,0.5 l 0.5,0 0.5,0 q 0.5,0 1,0 0.5,0 1,0 0.5,0 1,0 0.5,0 1,0 0.5,0 1,0 0.5,0 1,0 0.5,0 1,0 0.5,0 1,0 0.5,0 1,0 0.5,0 1,0 0.5,0 1,0 0.5,0 1,0 0.5,0 1,0 0.5,0 1,0 0.5,0 1,0 0.5,0 1,0 0.5,0 1,0 0.5,0 1,0 0.5,0 1,0 0.5,0 1,0 0.5,0 1,0 0.5,0 1,0 0.5,0 1,0 0.5,0 1,0 0.5,0 1,0 0.5,0 1,0 0.5,0 1,0 0.5,0 1,0 0.5,0 1,0 0.5,0 1,0 0.5,0 1,0 0.5,0 1,0 0.5,0 1,0 0.5,0 1,0 0.5,0 1,0 0.5,0 1,0 0.5,0 1,0 0.5,0 1,0 0.5,0 1,0 0.5,0 1,0 0.5,0 1,0 0.5,0 1,0 0.5,0 1,0 0.5,0 1,0 0.5,0 1,0 0.5,0 1,0 0.5,0 1,0 0.5,0 1,0 0.5,0 1,0 0.5,0 1,0 0.5,0 1,0 0.5,0 1,0 0.5,0 1,0 0.5,0 1,0 0.5,0 1,0 0.5,0 1,0 0.5,0 1,0 0.5,0 1,0 0.5,0 1,0 0.5,0 1,0 0.5,0 1,0 0.5,0 1,0 0.5,0 1,0 0.5,0 1,0 0.5,0 1,0 0.5,0 1,0 0.5,0 1,0 0.5,0 1,0 0.5,0 1,0 0.5,0 1,0 0.5,0 1,0 0.5,0 1,0 0.5,0 1,0 0.5,0 1,0 0.5,0 1,0 0.5,0 1,0 0.5,0 1,0 0.5,0 1,0 0.5,0 1,0 0.5,0 1,0 0.5,0 1,0 0.5,0 1,0 0.5,0 1,0 0.5,0 1,0 0.5,0 1,0 0.5,0 1,0 0.5,0 1,0 0.5,0 1,0 0.5,0 1,0 0.5,0 1,0 0.5,0 1,0 0.5,0 1,0 0.5,0 1,0 0.5,0 1,0 0.5,0 1,0 0.5,0 1,0 0.5,0 1,0 0.5,0 1,0 0.5,0 1,0 0.5,0 1,0 0.5,0 1,0 0.5,0 1,0 0.5,0 1,0 0.5,0 1,0 0.5,0 1,0 0.5,0 1,0 0.5,0 1,0 0.5,0 1,0 0.5,0 1,0 0.5,0 1,0 0.5,0 1,0 0.5,0 1,0 0.5,0 1,0 0.5,0 1,0 0.5,0 1,0 0.5,0 1,0 0.5,0 1,0 0.5,0 1,0 0.5,0 1,0 0.5,0 1,0 0.5,0 1,0 0.5,0 1,0 0.5,0 1,0 0.5,0 1,0 0.5,0 1,0 0.5,0 1,0 0.5,0 1,0 0.5,0 1,0 0.5,0 1,0 0.5,0 1,0 0.5,0 1,0 0.5,0 1,0 0.5,0 1,0 0.5,0 1,0 0.5,0 1,0 0.5,0 1,0 0.5,0 1,0 0.5,0 1,0 0.5,0 1,0 0.5,0 1,0 0.5,0 1,0 0.5,0 1,0 0.5,0 1,0 0.5,0 1,0 0.5,0 1,0 0.5,0 1,0 0.5,0 1,0 0.5,0 1,0 0.5,0 1,0 0.5,0 1,0 0.5,0 1,0 0.5,0 1,0 0.5,0 1,0 0.5,0 1,0 0.5,0 1,0 0.5,0 1,0 0.5,0 1,0 0.5,0 1,0 0.5,0 1,0 0.5,0 1,0 0.5,0 1,0 0.5,0 1,0 0.5,0 1,0 0.5,0 1,0 0.5,0 1,0 0.5,0 1,0 0.5,0 1,0 0.5,0 1,0 0.5,0 1,0 0.5,0 1,0 0.5,0 1,0 0.5,0 1,0 0.5,0 1,0 0.5,0 1,0 0.5,0 1,0 0.5,0 1,0 0.5,0 1,0 0.5,0 1,0 0.5,0 1,0 l 0.5,0 0.5,0 q 0.5,0 0.5,-0.5 l 0,-0.5 0,-0.5 0,-0.5 0,-0.5 q 0,-0.5 -0.5,-0.5 l -0.5,0 0,-0.5 0,-0.5 0,-0.5 0,-0.5 0,-0.5 q 0,-0.5 -0.5,-0.5 l -0.5,0 0,-0.5 0,-0.5 0,-0.5 0,-0.5 0,-0.5 q 0,-0.5 -0.5,-0.5 l -0.5,0 0,-0.5 0,-0.5 0,-0.5 q 0,-0.5 -0.5,-0.5 l -0.5,0 0,-0.5 0,-0.5 0,-0.5 0,-0.5 0,-0.5 q 0,-0.5 -0.5,-0.5 l -0.5,0 0,-0.5 0,-0.5 0,-0.5 q 0,-0.5 -0.5,-0.5 l -0.5,0 0,-0.5 0,-0.5 0,-0.5 q 0,-0.5 -0.5,-0.5 l -0.5,0 0,-0.5 0,-0.5 0,-0.5 q 0,-0.5 -0.5,-0.5 l -0.5,0 0,-0.5 0,-0.5 0,-0.5 q 0,-0.5 -0.5,-0.5 l -0.5,0 0,-0.5 0,-0.5 0,-0.5 q 0,-0.5 -0.5,-0.5 l -0.5,0 0,-0.5 0,-0.5 0,-0.5 q 0,-0.5 -0.5,-0.5 l -0.5,0 0,-0.5 q 0,-0.5 -0.5,-0.5 l -0.5,0 0,-0.5 0,-0.5 0,-0.5 q 0,-0.5 -0.5,-0.5 l -0.5,0 0,-0.5 0,-0.5 0,-0.5 q 0,-0.5 -0.5,-0.5 l -0.5,0 0,-0.5 q 0,-0.5 -0.5,-0.5 l -0.5,0 0,-0.5 0,-0.5 0,-0.5 q 0,-0.5 -0.5,-0.5 l -0.5,0 0,-0.5 q 0,-0.5 -0.5,-0.5 l -0.5,0 0,-0.5 0,-0.5 0,-0.5 q 0,-0.5 -0.5,-0.5 l -0.5,0 0,-0.5 q 0,-0.5 -0.5,-0.5 l -0.5,0 0,-0.5 0,-0.5 0,-0.5 q 0,-0.5 -0.5,-0.5 l -0.5,0 0,-0.5 q 0,-0.5 -0.5,-0.5 l -0.5,0 0,-0.5 q 0,-0.5 -0.5,-0.5 l -0.5,0 0,-0.5 q 0,-0.5 -0.5,-0.5 l -0.5,0 0,-0.5 0,-0.5 0,-0.5 q 0,-0.5 -0.5,-0.5 l -0.5,0 -0.5,0 -0.5,0 -0.5,0 q -0.5,0 -0.5,0.5 l 0,0.5 -0.5,0 q -0.5,0 -0.5,0.5 l 0,0.5 -0.5,0 -0.5,0 -0.5,0 q -0.5,0 -0.5,0.5 l 0,0.5 -0.5,0 q -0.5,0 -0.5,0.5 l 0,0.5 -0.5,0 -0.5,0 -0.5,0 -0.5,0 -0.5,0 q -0.5,0 -0.5,0.5 l 0,0.5 -0.5,0 -0.5,0 -0.5,0 q -0.5,0 -0.5,0.5 l 0,0.5 -0.5,0 -0.5,0 -0.5,0 q -0.5,0 -0.5,0.5 l 0,0.5 -0.5,0 -0.5,0 -0.5,0 -0.5,0 -0.5,0 -0.5,0 -0.5,0 q -0.5,0 -0.5,0.5 l 0,0.5 -0.5,0 -0.5,0 -0.5,0 -0.5,0 -0.5,0 -0.5,0 -0.5,0 q -0.5,0 -0.5,0.5 l 0,0.5 -0.5,0 -0.5,0 -0.5,0 -0.5,0 -0.5,0 -0.5,0 -0.5,0 -0.5,0 -0.5,0 -0.5,0 -0.5,0 -0.5,0 -0.5,0 -0.5,0 -0.5,0 -0.5,0 -0.5,0 -0.5,0 -0.5,0 -0.5,0 -0.5,0 -0.5,0 -0.5,0 -0.5,0 -0.5,0 -0.5,0 -0.5,0 -0.5,0 -0.5,0 -0.5,0 -0.5,0 -0.5,0 -0.5,0 -0.5,0 -0.5,0 -0.5,0 0,-0.5 q 0,-0.5 -0.5,-0.5 l -0.5,0 -0.5,0 -0.5,0 -0.5,0 -0.5,0 -0.5,0 -0.5,0 0,-0.5 q 0,-0.5 -0.5,-0.5 l -0.5,0 -0.5,0 -0.5,0 0,-0.5 q 0,-0.5 -0.5,-0.5 l -0.5,0 -0.5,0 -0.5,0 -0.5,0 -0.5,0 0,-0.5 q 0,-0.5 -0.5,-0.5 l -0.5,0 -0.5,0 -0.5,0 0,-0.5 q 0,-0.5 -0.5,-0.5 l -0.5,0 -0.5,0 -0.5,0 0,-0.5 q 0,-0.5 -0.5,-0.5 l -0.5,0 -0.5,0 -0.5,0 0,-0.5 q 0,-0.5 -0.5,-0.5 l -0.5,0 0,-0.5 q 0,-0.5 -0.5,-0.5 l -0.5,0 -0.5,0 -0.5,0 0,-0.5 q 0,-0.5 -0.5,-0.5 l -0.5,0 0,-0.5 q 0,-0.5 -0.5,-0.5 l -0.5,0 -0.5,0 -0.5,0 0,-0.5 q 0,-0.5 -0.5,-0.5 l -0.5,0 0,-0.5 q 0,-0.5 -0.5,-0.5 l -0.5,0 0,-0.5 q 0,-0.5 -0.5,-0.5 l -0.5,0 0,-0.5 q 0,-0.5 -0.5,-0.5 l -0.5,0 0,-0.5 q 0,-0.5 -0.5,-0.5 l -0.5,0 -0.5,0 -0.5,0 0,-0.5 0,-0.5 0.5,0 0.5,0 0.5,0 0.5,0 0.5,0 0.5,0 0.5,0 0.5,0 0.5,0 0.5,0 0.5,0 0.5,0 0.5,0 0.5,0 0.5,0 0.5,0 0.5,0 0.5,0 0.5,0 0.5,0 0.5,0 0.5,0 0.5,0 0.5,0 0.5,0 0.5,0 0.5,0 0.5,0 0.5,0 0.5,0 0.5,0 0.5,0 0.5,0 0.5,0 0.5,0 0.5,0 0.5,0 0.5,0 0.5,0 0.5,0 0.5,0 0.5,0 0.5,0 0.5,0 0.5,0 0.5,0 0.5,0 0.5,0 0.5,0 0.5,0 0.5,0 0.5,0 0.5,0 0.5,0 0.5,0 0.5,0 0.5,0 0.5,0 0.5,0 0.5,0 0.5,0 0.5,0 0.5,0 0.5,0 0.5,0 0.5,0 0.5,0 0.5,0 0.5,0 0.5,0 0.5,0 0.5,0 0.5,0 0.5,0 0.5,0 0.5,0 0.5,0 0.5,0 0.5,0 0.5,0 0.5,0 0.5,0 0.5,0 0.5,0 0.5,0 0.5,0 0.5,0 0.5,0 0.5,0 0.5,0 0.5,0 0.5,0 0.5,0 0.5,0 0.5,0 0.5,0 0.5,0 0.5,0 0.5,0 0.5,0 0.5,0 0.5,0 0.5,0 0.5,0 0.5,0 0.5,0 0.5,0 0.5,0 0.5,0 0.5,0 0.5,0 0.5,0 0.5,0 0.5,0 0.5,0 0.5,0 0.5,0 0.5,0 0.5,0 0.5,0 0.5,0 0.5,0 0.5,0 0.5,0 0.5,0 0.5,0 0.5,0 0.5,0 0.5,0 0.5,0 0.5,0 0.5,0 0.5,0 0.5,0 0.5,0 0.5,0 0.5,0 0.5,0 0.5,0 0.5,0 0.5,0 0.5,0 0.5,0 0.5,0 0.5,0 0.5,0 0.5,0 0.5,0 0.5,0 0.5,0 0.5,0 0.5,0 0.5,0 0.5,0 0.5,0 0.5,0 0.5,0 0.5,0 0.5,0 0.5,0 0.5,0 0.5,0 0.5,0 0.5,0 0.5,0 0.5,0 0.5,0 0.5,0 0.5,0 0.5,0 0.5,0 0.5,0 0.5,0 0.5,0 0.5,0 0.5,0 0.5,0 0.5,0 0.5,0 0.5,0 0.5,0 0.5,0 0.5,0 0.5,0 0.5,0 0.5,0 0.5,0 0.5,0 0.5,0 0.5,0 0.5,0 0.5,0 0.5,0 0.5,0 0.5,0 0.5,0 0.5,0 0.5,0 0,0.5 0,0.5 0,0.5 0,0.5 0,0.5 0,0.5 0,0.5 0,0.5 0,0.5 0,0.5 0,0.5 0,0.5 0,0.5 0,0.5 0,0.5 0,0.5 0,0.5 0,0.5 0,0.5 0,0.5 0,0.5 0,0.5 0,0.5 0,0.5 0,0.5 0,0.5 0,0.5 0,0.5 0,0.5 0,0.5 0,0.5 0,0.5 0,0.5 0,0.5 0,0.5 0,0.5 0,0.5 0,0.5 0,0.5 0,0.5 0,0.5 0,0.5 0,0.5 0,0.5 0,0.5 0,0.5 0,0.5 0,0.5 0,0.5 0,0.5 0,0.5 0,0.5 0,0.5 0,0.5 0,0.5 0,0.5 0,0.5 0,0.5 0,0.5 0,0.5 0,0.5 0,0.5 0,0.5 0,0.5 0,0.5 0,0.5 0,0.5 0,0.5 0,0.5 0,0.5 0,0.5 0,0.5 0,0.5 0,0.5 0,0.5 0,0.5 0,0.5 0,0.5 0,0.5 0,0.5 0,0.5 0,0.5 0,0.5 0,0.5 0,0.5 0,0.5 0,0.5 0,0.5 0,0.5 0,0.5 0,0.5 0,0.5 0,0.5 0,0.5 0,0.5 0,0.5 0,0.5 0,0.5 0,0.5 0,0.5 0,0.5 0,0.5 0,0.5 0,0.5 0,0.5 0,0.5 0,0.5 0,0.5 0,0.5 0,0.5 0,0.5 0,0.5 0,0.5 0,0.5 0,0.5 0,0.5 0,0.5 0,0.5 0,0.5 0,0.5 0,0.5 0,0.5 0,0.5 0,0.5 0,0.5 0,0.5 0,0.5 0,0.5 0,0.5 0,0.5 0,0.5 0,0.5 0,0.5 0,0.5 0,0.5 0,0.5 0,0.5 0,0.5 0,0.5 0,0.5 0,0.5 0,0.5 0,0.5 0,0.5 0,0.5 0,0.5 0,0.5 0,0.5 0,0.5 0,0.5 0,0.5 0,0.5 0,0.5 0,0.5 0,0.5 0,0.5 0,0.5 0,0.5 0,0.5 0,0.5 0,0.5 0,0.5 0,0.5 0,0.5 0,0.5 0,0.5 0,0.5 0,0.5 0,0.5 0,0.5 0,0.5 0,0.5 0,0.5 0,0.5 0,0.5 0,0.5 0,0.5 0,0.5 0,0.5 0,0.5 0,0.5 0,0.5 0,0.5 0,0.5 0,0.5 0,0.5 0,0.5 0,0.5 0,0.5 0,0.5 0,0.5 0,0.5 0,0.5 0,0.5 0,0.5 0,0.5 0,0.5 0,0.5 0,0.5 0,0.5 0,0.5 0,0.5 0,0.5 0,0.5 0,0.5 0,0.5 0,0.5 0,0.5 0,0.5 0,0.5 0,0.5 0,0.5 0,0.5 0,0.5 0,0.5 0,0.5 0,0.5 0,0.5 0,0.5 0,0.5 0,0.5 0,0.5 0,0.5 0,0.5 0,0.5 0,0.5 0,0.5 0,0.5 0,0.5 0,0.5 0,0.5 0,0.5 0,0.5 0,0.5 0,0.5 0,0.5 0,0.5 0,0.5 0,0.5 0,0.5 0,0.5 0,0.5 0,0.5 0,0.5 0,0.5 0,0.5 0,0.5 0,0.5 0,0.5 0,0.5 0,0.5 0,0.5 0,0.5 0,0.5 0,0.5 0,0.5 0,0.5 0,0.5 0,0.5 0,0.5 0,0.5 0,0.5 0,0.5 0,0.5 0,0.5 0,0.5 0,0.5 0,0.5 0,0.5 0,0.5 0,0.5 0,0.5 0,0.5 0,0.5 0,0.5 0,0.5 0,0.5 0,0.5 0,0.5 0,0.5 0,0.5 0,0.5 0,0.5 0,0.5 0,0.5 0,0.5 0,0.5 0,0.5 0,0.5 0,0.5 0,0.5 0,0.5 0,0.5 0,0.5 0,0.5 0,0.5 0,0.5 0,0.5 0,0.5 0,0.5 0,0.5 0,0.5 0,0.5 0,0.5 0,0.5 0,0.5 0,0.5 0,0.5 0,0.5 0,0.5 0,0.5 0,0.5 0,0.5 0,0.5 0,0.5 0,0.5 0,0.5 0,0.5 0,0.5 0,0.5 0,0.5 0,0.5 0,0.5 0,0.5 0,0.5 0,0.5 0,0.5 0,0.5 0,0.5 0,0.5 0,0.5 0,0.5 0,0.5 0,0.5 0,0.5 0,0.5 0,0.5 0,0.5 0,0.5 0,0.5 0,0.5 0,0.5 0,0.5 0,0.5 0,0.5 0,0.5 0,0.5 0,0.5 0,0.5 0,0.5 0,0.5 0,0.5 0,0.5 0,0.5 0,0.5 0,0.5 0,0.5 0,0.5 0,0.5 0,0.5 0,0.5 0,0.5 0,0.5 0,0.5 0,0.5 0,0.5 0,0.5 0,0.5 0,0.5 0,0.5 0,0.5 0,0.5 0,0.5 0,0.5 0,0.5 0,0.5 0,0.5 0,0.5 0,0.5 0,0.5 0,0.5 0,0.5 0,0.5 0,0.5 0,0.5 0,0.5 0,0.5 0,0.5 0,0.5 0,0.5 0,0.5 0,0.5 0,0.5 0,0.5 0,0.5 0,0.5 0,0.5 0,0.5 0,0.5 0,0.5 -0.5,0 -0.5,0 -0.5,0 -0.5,0 -0.5,0 -0.5,0 -0.5,0 -0.5,0 -0.5,0 -0.5,0 -0.5,0 -0.5,0 -0.5,0 -0.5,0 -0.5,0 -0.5,0 -0.5,0 -0.5,0 -0.5,0 -0.5,0 -0.5,0 -0.5,0 -0.5,0 -0.5,0 -0.5,0 -0.5,0 -0.5,0 -0.5,0 -0.5,0 -0.5,0 -0.5,0 -0.5,0 -0.5,0 -0.5,0 -0.5,0 -0.5,0 -0.5,0 -0.5,0 -0.5,0 -0.5,0 -0.5,0 -0.5,0 -0.5,0 -0.5,0 -0.5,0 -0.5,0 -0.5,0 -0.5,0 -0.5,0 -0.5,0 -0.5,0 -0.5,0 -0.5,0 -0.5,0 -0.5,0 -0.5,0 -0.5,0 -0.5,0 -0.5,0 -0.5,0 -0.5,0 -0.5,0 -0.5,0 -0.5,0 -0.5,0 -0.5,0 -0.5,0 -0.5,0 -0.5,0 -0.5,0 -0.5,0 -0.5,0 -0.5,0 -0.5,0 -0.5,0 -0.5,0 -0.5,0 -0.5,0 -0.5,0 -0.5,0 -0.5,0 -0.5,0 -0.5,0 -0.5,0 -0.5,0 -0.5,0 -0.5,0 -0.5,0 -0.5,0 -0.5,0 -0.5,0 -0.5,0 -0.5,0 -0.5,0 -0.5,0 -0.5,0 -0.5,0 -0.5,0 -0.5,0 -0.5,0 -0.5,0 -0.5,0 -0.5,0 -0.5,0 -0.5,0 -0.5,0 -0.5,0 -0.5,0 -0.5,0 -0.5,0 -0.5,0 -0.5,0 -0.5,0 -0.5,0 -0.5,0 -0.5,0 -0.5,0 -0.5,0 -0.5,0 -0.5,0 -0.5,0 -0.5,0 -0.5,0 -0.5,0 -0.5,0 -0.5,0 -0.5,0 -0.5,0 -0.5,0 -0.5,0 -0.5,0 -0.5,0 -0.5,0 -0.5,0 -0.5,0 -0.5,0 -0.5,0 -0.5,0 -0.5,0 -0.5,0 -0.5,0 -0.5,0 -0.5,0 -0.5,0 -0.5,0 -0.5,0 -0.5,0 -0.5,0 -0.5,0 -0.5,0 -0.5,0 -0.5,0 -0.5,0 -0.5,0 -0.5,0 -0.5,0 -0.5,0 -0.5,0 -0.5,0 -0.5,0 -0.5,0 -0.5,0 -0.5,0 -0.5,0 -0.5,0 -0.5,0 -0.5,0 -0.5,0 -0.5,0 -0.5,0 -0.5,0 -0.5,0 -0.5,0 -0.5,0 -0.5,0 -0.5,0 -0.5,0 -0.5,0 -0.5,0 -0.5,0 -0.5,0 -0.5,0 -0.5,0 -0.5,0 -0.5,0 -0.5,0 -0.5,0 -0.5,0 -0.5,0 -0.5,0 -0.5,0 -0.5,0 0,-0.5 0,-0.5 0.5,0 0.5,0 0.5,0 0.5,0 0.5,0 q 0.5,0 0.5,-0.5 l 0,-0.5 0.5,0 0.5,0 0.5,0 0.5,0 0.5,0 q 0.5,0 0.5,-0.5 l 0,-0.5 0.5,0 0.5,0 0.5,0 0.5,0 0.5,0 q 0.5,0 0.5,-0.5 l 0,-0.5 0.5,0 0.5,0 0.5,0 0.5,0 0.5,0 q 0.5,0 0.5,-0.5 l 0,-0.5 0.5,0 0.5,0 0.5,0 q 0.5,0 0.5,-0.5 l 0,-0.5 0.5,0 0.5,0 0.5,0 0.5,0 0.5,0 q 0.5,0 0.5,-0.5 l 0,-0.5 0.5,0 0.5,0 0.5,0 q 0.5,0 0.5,-0.5 l 0,-0.5 0.5,0 0.5,0 0.5,0 0.5,0 0.5,0 q 0.5,0 0.5,-0.5 l 0,-0.5 0.5,0 0.5,0 0.5,0 q 0.5,0 0.5,-0.5 l 0,-0.5 0.5,0 0.5,0 0.5,0 q 0.5,0 0.5,-0.5 l 0,-0.5 0.5,0 0.5,0 0.5,0 q 0.5,0 0.5,-0.5 l 0,-0.5 0.5,0 0.5,0 0.5,0 q 0.5,0 0.5,-0.5 l 0,-0.5 0.5,0 0.5,0 0.5,0 q 0.5,0 0.5,-0.5 l 0,-0.5 0.5,0 q 0.5,0 0.5,-0.5 l 0,-0.5 0.5,0 0.5,0 0.5,0 q 0.5,0 0.5,-0.5 l 0,-0.5 0.5,0 0.5,0 0.5,0 q 0.5,0 0.5,-0.5 l 0,-0.5 0.5,0 q 0.5,0 0.5,-0.5 l 0,-0.5 0.5,0 0.5,0 0.5,0 q 0.5,0 0.5,-0.5 l 0,-0.5 0.5,0 0.5,0 0.5,0 q 0.5,0 0.5,-0.5 l 0,-0.5 0.5,0 q 0.5,0 0.5,-0.5 l 0,-0.5 0.5,0 q 0.5,0 0.5,-0.5 l 0,-0.5 0.5,0 0.5,0 0.5,0 q 0.5,0 0.5,-0.5 l 0,-0.5 0.5,0 q 0.5,0 0.5,-0.5 l 0,-0.5 0.5,0 q 0.5,0 0.5,-0.5 l 0,-0.5 0.5,0 0.5,0 0.5,0 q 0.5,0 0.5,-0.5 l 0,-0.5 0.5,0 q 0.5,0 0.5,-0.5 l 0,-0.5 0.5,0 q 0.5,0 0.5,-0.5 l 0,-0.5 0.5,0 q 0.5,0 0.5,-0.5 l 0,-0.5 0.5,0 0.5,0 0.5,0 q 0.5,0 0.5,-0.5 l 0,-0.5 0.5,0 q 0.5,0 0.5,-0.5 l 0,-0.5 0.5,0 q 0.5,0 0.5,-0.5 l 0,-0.5 0.5,0 q 0.5,0 0.5,-0.5 l 0,-0.5 0.5,0 q 0.5,0 0.5,-0.5 l 0,-0.5 0.5,0 q 0.5,0 0.5,-0.5 l 0,-0.5 0.5,0 q 0.5,0 0.5,-0.5 l 0,-0.5 0.5,0 q 0.5,0 0.5,-0.5 l 0,-0.5 0.5,0 q 0.5,0 0.5,-0.5 l 0,-0.5 0.5,0 q 0.5,0 0.5,-0.5 l 0,-0.5 0.5,0 q 0.5,0 0.5,-0.5 l 0,-0.5 0.5,0 q 0.5,0 0.5,-0.5 l 0,-0.5 0,-0.5 0,-0.5 0.5,0 q 0.5,0 0.5,-0.5 l 0,-0.5 0.5,0 q 0.5,0 0.5,-0.5 l 0,-0.5 0.5,0 q 0.5,0 0.5,-0.5 l 0,-0.5 0.5,0 q 0.5,0 0.5,-0.5 l 0,-0.5 0,-0.5 0,-0.5 0.5,0 q 0.5,0 0.5,-0.5 l 0,-0.5 0.5,0 q 0.5,0 0.5,-0.5 l 0,-0.5 0.5,0 q 0.5,0 0.5,-0.5 l 0,-0.5 0,-0.5 0,-0.5 0.5,0 q 0.5,0 0.5,-0.5 l 0,-0.5 0.5,0 q 0.5,0 0.5,-0.5 l 0,-0.5 0,-0.5 0,-0.5 0.5,0 q 0.5,0 0.5,-0.5 l 0,-0.5 0,-0.5 0,-0.5 0.5,0 q 0.5,0 0.5,-0.5 l 0,-0.5 0.5,0 q 0.5,0 0.5,-0.5 l 0,-0.5 0,-0.5 0,-0.5 0.5,0 q 0.5,0 0.5,-0.5 l 0,-0.5 0,-0.5 0,-0.5 0.5,0 q 0.5,0 0.5,-0.5 l 0,-0.5 0,-0.5 0,-0.5 0.5,0 q 0.5,0 0.5,-0.5 l 0,-0.5 0,-0.5 0,-0.5 0.5,0 q 0.5,0 0.5,-0.5 l 0,-0.5 0,-0.5 0,-0.5 0.5,0 q 0.5,0 0.5,-0.5 l 0,-0.5 0,-0.5 0,-0.5 0.5,0 q 0.5,0 0.5,-0.5 l 0,-0.5 0,-0.5 0,-0.5 0,-0.5 0,-0.5 0.5,0 q 0.5,0 0.5,-0.5 l 0,-0.5 0,-0.5 0,-0.5 0.5,0 q 0.5,0 0.5,-0.5 l 0,-0.5 0,-0.5 0,-0.5 0,-0.5 0,-0.5 0.5,0 q 0.5,0 0.5,-0.5 l 0,-0.5 0,-0.5 0,-0.5 0,-0.5 0,-0.5 0.5,0 q 0.5,0 0.5,-0.5 l 0,-0.5 0,-0.5 0,-0.5 0,-0.5 0,-0.5 0.5,0 q 0.5,0 0.5,-0.5 l 0,-0.5 0,-0.5 0,-0.5 0,-0.5 0,-0.5 0,-0.5 0,-0.5 0.5,0 q 0.5,0 0.5,-0.5 l 0,-0.5 0,-0.5 0,-0.5 0,-0.5 0,-0.5 0,-0.5 0,-0.5 0.5,0 q 0.5,0 0.5,-0.5 l 0,-0.5 0,-0.5 0,-0.5 0,-0.5 0,-0.5 0,-0.5 0,-0.5 0,-0.5 0,-0.5 0,-0.5 0,-0.5 0.5,0 q 0.5,0 0.5,-0.5 l 0,-0.5 0,-0.5 0,-0.5 0,-0.5 0,-0.5 0,-0.5 0,-0.5 0,-0.5 0,-0.5 0,-0.5 0,-0.5 0,-0.5 0,-0.5 0,-0.5 0,-0.5 0,-0.5 0,-0.5 0.5,0 q 0.5,0 0.5,-0.5 l 0,-0.5 0,-0.5 0,-0.5 0,-0.5 0,-0.5 0,-0.5 0,-0.5 0,-0.5 0,-0.5 0,-0.5 0,-0.5 0,-0.5 0,-0.5 0,-0.5 0,-0.5 0,-0.5 0,-0.5 0,-0.5 0,-0.5 0,-0.5 0,-0.5 0,-0.5 0,-0.5 0,-0.5 0,-0.5 0,-0.5 0,-0.5 0,-0.5 0,-0.5 0,-0.5 q 0,-0.5 -0.5,-0.5 l -0.5,0 0,-0.5 0,-0.5 0,-0.5 0,-0.5 0,-0.5 0,-0.5 0,-0.5 0,-0.5 0,-0.5 0,-0.5 0,-0.5 0,-0.5 0,-0.5 0,-0.5 0,-0.5 0,-0.5 0,-0.5 q 0,-0.5 -0.5,-0.5 l -0.5,0 0,-0.5 0,-0.5 0,-0.5 0,-0.5 0,-0.5 0,-0.5 0,-0.5 0,-0.5 0,-0.5 q 0,-0.5 -0.5,-0.5 l -0.5,0 0,-0.5 0,-0.5 0,-0.5 0,-0.5 0,-0.5 0,-0.5 0,-0.5 0,-0.5 0,-0.5 q 0,-0.5 -0.5,-0.5 l -0.5,0 -0.5,0 -0.5,0 -0.5,0 q -0.5,0 -1,0 -0.5,0 -1,0 -0.5,0 -1,0 -0.5,0 -1,0 -0.5,0 -1,0 -0.5,0 -1,0 -0.5,0 -1,0 -0.5,0 -1,0 -0.5,0 -1,0 -0.5,0 -1,0 -0.5,0 -1,0 -0.5,0 -1,0 -0.5,0 -1,0 -0.5,0 -1,0 -0.5,0 -1,0 -0.5,0 -1,0 -0.5,0 -1,0 -0.5,0 -1,0 -0.5,0 -1,0 -0.5,0 -1,0 -0.5,0 -1,0 -0.5,0 -1,0 -0.5,0 -1,0 -0.5,0 -1,0 -0.5,0 -1,0 -0.5,0 -1,0 -0.5,0 -1,0 -0.5,0 -1,0 -0.5,0 -1,0 -0.5,0 -1,0 -0.5,0 -1,0 -0.5,0 -1,0 -0.5,0 -1,0 -0.5,0 -1,0 -0.5,0 -1,0 -0.5,0 -1,0 -0.5,0 -1,0 -0.5,0 -1,0 -0.5,0 -1,0 -0.5,0 -1,0 -0.5,0 -1,0 -0.5,0 -1,0 -0.5,0 -1,0 -0.5,0 -1,0 -0.5,0 -1,0 -0.5,0 -1,0 -0.5,0 -1,0 -0.5,0 -1,0 -0.5,0 -1,0 -0.5,0 -1,0 -0.5,0 -1,0 -0.5,0 -1,0 -0.5,0 -1,0 -0.5,0 -1,0 -0.5,0 -1,0 -0.5,0 -1,0 -0.5,0 -1,0 -0.5,0 -1,0 -0.5,0 -1,0 -0.5,0 -1,0 -0.5,0 -1,0 -0.5,0 -1,0 -0.5,0 -1,0 -0.5,0 -1,0 -0.5,0 -1,0 -0.5,0 -1,0 -0.5,0 -1,0 -0.5,0 -1,0 -0.5,0 -1,0 -0.5,0 -1,0 -0.5,0 -1,0 -0.5,0 -1,0 -0.5,0 -1,0 -0.5,0 -1,0 -0.5,0 -1,0 -0.5,0 -1,0 -0.5,0 -1,0 -0.5,0 -1,0 -0.5,0 -1,0 -0.5,0 -1,0 -0.5,0 -1,0 -0.5,0 -1,0 -0.5,0 -1,0 -0.5,0 -1,0 -0.5,0 -1,0 -0.5,0 -1,0 -0.5,0 -1,0 -0.5,0 -1,0 -0.5,0 -1,0 -0.5,0 -1,0 -0.5,0 -1,0 -0.5,0 -1,0 -0.5,0 -1,0 -0.5,0 -1,0 -0.5,0 -1,0 -0.5,0 -1,0 -0.5,0 -1,0 -0.5,0 -1,0 -0.5,0 -1,0 -0.5,0 -1,0 -0.5,0 -1,0 -0.5,0 -1,0 -0.5,0 -1,0 -0.5,0 -1,0 -0.5,0 -1,0 -0.5,0 -1,0 -0.5,0 -1,0 -0.5,0 -1,0 -0.5,0 -1,0 -0.5,0 -1,0 -0.5,0 -1,0 -0.5,0 -1,0 -0.5,0 -1,0 -0.5,0 -1,0 -0.5,0 -1,0 -0.5,0 -1,0 -0.5,0 -1,0 -0.5,0 -1,0 -0.5,0 -1,0 -0.5,0 -1,0 -0.5,0 -1,0 -0.5,0 -1,0 -0.5,0 -1,0 -0.5,0 -1,0 -0.5,0 -1,0 -0.5,0 -1,0 -0.5,0 -1,0 -0.5,0 -1,0 -0.5,0 -1,0 -0.5,0 -1,0 -0.5,0 -1,0 -0.5,0 -1,0 -0.5,0 -1,0 -0.5,0 -1,0 -0.5,0 -1,0 -0.5,0 -1,0 -0.5,0 -1,0 -0.5,0 -1,0 -0.5,0 -1,0 -0.5,0 -1,0 -0.5,0 -1,0 -0.5,0 -1,0 -0.5,0 -1,0 -0.5,0 -1,0 -0.5,0 -1,0 -0.5,0 -1,0 -0.5,0 -1,0 -0.5,0 -1,0 -0.5,0 -1,0 -0.5,0 -1,0 -0.5,0 -1,0 -0.5,0 -1,0 -0.5,0 -1,0 -0.5,0 -1,0 -0.5,0 -1,0 -0.5,0 -1,0 -0.5,0 -1,0 -0.5,0 -1,0 -0.5,0 -1,0 -0.5,0 -1,0 -0.5,0 -1,0 -0.5,0 -1,0 -0.5,0 -1,0 -0.5,0 -1,0 -0.5,0 -1,0 -0.5,0 -1,0 -0.5,0 -1,0 -0.5,0 -1,0 -0.5,0 -1,0 -0.5,0 -1,0 -0.5,0 -1,0 -0.5,0 -1,0 -0.5,0 -1,0 -0.5,0 -1,0 -0.5,0 -1,0 -0.5,0 -1,0 -0.5,0 -1,0 -0.5,0 -1,0 -0.5,0 -1,0 -0.5,0 -1,0 -0.5,0 -1,0 -0.5,0 -1,0 -0.5,0 -1,0 -0.5,0 -1,0 l -0.5,0 -0.5,0 q -0.5,0 -0.5,0.5 l 0,0.5 0,0.5 0,0.5 0,0.5 0,0.5 0,0.5 0,0.5 -0.5,0 q -0.5,0 -0.5,0.5 l 0,0.5 0,0.5 0,0.5 0,0.5 0,0.5 0,0.5 0,0.5 0,0.5 0,0.5 0,0.5 0,0.5 -0.5,0 q -0.5,0 -0.5,0.5 l 0,0.5 0,0.5 0,0.5 0,0.5 0,0.5 0,0.5 0,0.5 0,0.5 0,0.5 0,0.5 0,0.5 0,0.5 0,0.5 0,0.5 0,0.5 0,0.5 0,0.5 -0.5,0 q -0.5,0 -0.5,0.5 l 0,0.5 0,0.5 0,0.5 0,0.5 0,0.5 0,0.5 0,0.5 0,0.5 0,0.5 0,0.5 0,0.5 0,0.5 0,0.5 0,0.5 0,0.5 0,0.5 0,0.5 0,0.5 0,0.5 0,0.5 0,0.5 0,0.5 0,0.5 0,0.5 0,0.5 0,0.5 0,0.5 0,0.5 0,0.5 0,0.5 q 0,0.5 0.5,0.5 l 0.5,0 0,0.5 0,0.5 0,0.5 0,0.5 0,0.5 0,0.5 0,0.5 0,0.5 0,0.5 0,0.5 0,0.5 0,0.5 0,0.5 0,0.5 0,0.5 0,0.5 0,0.5 q 0,0.5 0.5,0.5 l 0.5,0 0,0.5 0,0.5 0,0.5 0,0.5 0,0.5 0,0.5 0,0.5 0,0.5 0,0.5 0,0.5 0,0.5 q 0,0.5 0.5,0.5 l 0.5,0 0,0.5 0,0.5 0,0.5 0,0.5 0,0.5 0,0.5 0,0.5 q 0,0.5 0.5,0.5 l 0.5,0 0,0.5 0,0.5 0,0.5 0,0.5 0,0.5 0,0.5 0,0.5 q 0,0.5 0.5,0.5 l 0.5,0 0,0.5 0,0.5 0,0.5 0,0.5 0,0.5 q 0,0.5 0.5,0.5 l 0.5,0 0,0.5 0,0.5 0,0.5 0,0.5 0,0.5 q 0,0.5 0.5,0.5 l 0.5,0 0,0.5 0,0.5 0,0.5 0,0.5 0,0.5 q 0,0.5 0.5,0.5 l 0.5,0 0,0.5 0,0.5 0,0.5 0,0.5 0,0.5 q 0,0.5 0.5,0.5 l 0.5,0 0,0.5 0,0.5 0,0.5 q 0,0.5 0.5,0.5 l 0.5,0 0,0.5 0,0.5 0,0.5 q 0,0.5 0.5,0.5 l 0.5,0 0,0.5 0,0.5 0,0.5 q 0,0.5 0.5,0.5 l 0.5,0 0,0.5 0,0.5 0,0.5 q 0,0.5 0.5,0.5 l 0.5,0 0,0.5 0,0.5 0,0.5 q 0,0.5 0.5,0.5 l 0.5,0 0,0.5 0,0.5 0,0.5 q 0,0.5 0.5,0.5 l 0.5,0 0,0.5 0,0.5 0,0.5 q 0,0.5 0.5,0.5 l 0.5,0 0,0.5 q 0,0.5 0.5,0.5 l 0.5,0 0,0.5 0,0.5 0,0.5 q 0,0.5 0.5,0.5 l 0.5,0 0,0.5 0,0.5 0,0.5 q 0,0.5 0.5,0.5 l 0.5,0 0,0.5 q 0,0.5 0.5,0.5 l 0.5,0 0,0.5 0,0.5 0,0.5 q 0,0.5 0.5,0.5 l 0.5,0 0,0.5 q 0,0.5 0.5,0.5 l 0.5,0 0,0.5 q 0,0.5 0.5,0.5 l 0.5,0 0,0.5 0,0.5 0,0.5 q 0,0.5 0.5,0.5 l 0.5,0 0,0.5 q 0,0.5 0.5,0.5 l 0.5,0 0,0.5 q 0,0.5 0.5,0.5 l 0.5,0 0,0.5 q 0,0.5 0.5,0.5 l 0.5,0 0,0.5 0,0.5 0,0.5 q 0,0.5 0.5,0.5 l 0.5,0 0,0.5 q 0,0.5 0.5,0.5 l 0.5,0 0,0.5 q 0,0.5 0.5,0.5 l 0.5,0 0,0.5 q 0,0.5 0.5,0.5 l 0.5,0 0,0.5 q 0,0.5 0.5,0.5 l 0.5,0 0,0.5 q 0,0.5 0.5,0.5 l 0.5,0 0,0.5 q 0,0.5 0.5,0.5 l 0.5,0 0,0.5 q 0,0.5 0.5,0.5 l 0.5,0 0,0.5 q 0,0.5 0.5,0.5 l 0.5,0 0,0.5 q 0,0.5 0.5,0.5 l 0.5,0 0,0.5 q 0,0.5 0.5,0.5 l 0.5,0 0,0.5 q 0,0.5 0.5,0.5 l 0.5,0 0.5,0 0.5,0 0,0.5 q 0,0.5 0.5,0.5 l 0.5,0 0,0.5 q 0,0.5 0.5,0.5 l 0.5,0 0,0.5 q 0,0.5 0.5,0.5 l 0.5,0 0,0.5 q 0,0.5 0.5,0.5 l 0.5,0 0,0.5 q 0,0.5 0.5,0.5 l 0.5,0 0.5,0 0.5,0 0,0.5 q 0,0.5 0.5,0.5 l 0.5,0 0,0.5 q 0,0.5 0.5,0.5 l 0.5,0 0.5,0 0.5,0 0,0.5 q 0,0.5 0.5,0.5 l 0.5,0 0,0.5 q 0,0.5 0.5,0.5 l 0.5,0 0,0.5 q 0,0.5 0.5,0.5 l 0.5,0 0.5,0 0.5,0 0,0.5 q 0,0.5 0.5,0.5 l 0.5,0 0.5,0 0.5,0 0,0.5 q 0,0.5 0.5,0.5 l 0.5,0 0,0.5 q 0,0.5 0.5,0.5 l 0.5,0 0.5,0 0.5,0 0,0.5 q 0,0.5 0.5,0.5 l 0.5,0 0.5,0 0.5,0 0,0.5 q 0,0.5 0.5,0.5 l 0.5,0 0,0.5 q 0,0.5 0.5,0.5 l 0.5,0 0.5,0 0.5,0 0,0.5 q 0,0.5 0.5,0.5 l 0.5,0 0.5,0 0.5,0 0,0.5 q 0,0.5 0.5,0.5 l 0.5,0 0.5,0 0.5,0 0,0.5 q 0,0.5 0.5,0.5 l 0.5,0 0.5,0 0.5,0 0,0.5 q 0,0.5 0.5,0.5 l 0.5,0 0.5,0 0.5,0 0,0.5 q 0,0.5 0.5,0.5 l 0.5,0 0.5,0 0.5,0 0.5,0 0.5,0 0,0.5 q 0,0.5 0.5,0.5 l 0.5,0 0.5,0 0.5,0 0,0.5 q 0,0.5 0.5,0.5 l 0.5,0 0.5,0 0.5,0 0.5,0 0.5,0 0,0.5 q 0,0.5 0.5,0.5 l 0.5,0 0.5,0 0.5,0 0,0.5 q 0,0.5 0.5,0.5 l 0.5,0 0.5,0 0.5,0 0.5,0 0.5,0 0,0.5 q 0,0.5 0.5,0.5 l 0.5,0 0.5,0 0.5,0 0.5,0 0.5,0 0,0.5 q 0,0.5 0.5,0.5 l 0.5,0 0.5,0 0.5,0 0.5,0 0.5,0 0,0.5 q 0,0.5 0.5,0.5 l 0.5,0 0.5,0 0.5,0 0.5,0 0.5,0 0,0.5 0,0.5 -0.5,0 -0.5,0 -0.5,0 -0.5,0 -0.5,0 -0.5,0 -0.5,0 -0.5,0 -0.5,0 -0.5,0 -0.5,0 -0.5,0 -0.5,0 -0.5,0 -0.5,0 -0.5,0 -0.5,0 -0.5,0 -0.5,0 -0.5,0 -0.5,0 -0.5,0 -0.5,0 -0.5,0 -0.5,0 -0.5,0 -0.5,0 -0.5,0 -0.5,0 -0.5,0 -0.5,0 -0.5,0 -0.5,0 -0.5,0 -0.5,0 -0.5,0 -0.5,0 -0.5,0 -0.5,0 -0.5,0 -0.5,0 -0.5,0 -0.5,0 -0.5,0 -0.5,0 -0.5,0 -0.5,0 -0.5,0 -0.5,0 -0.5,0 -0.5,0 -0.5,0 -0.5,0 -0.5,0 -0.5,0 -0.5,0 -0.5,0 -0.5,0 -0.5,0 -0.5,0 -0.5,0 -0.5,0 -0.5,0 -0.5,0 -0.5,0 -0.5,0 -0.5,0 -0.5,0 -0.5,0 -0.5,0 -0.5,0 -0.5,0 -0.5,0 -0.5,0 -0.5,0 -0.5,0 -0.5,0 -0.5,0 -0.5,0 -0.5,0 -0.5,0 -0.5,0 -0.5,0 -0.5,0 -0.5,0 -0.5,0 -0.5,0 -0.5,0 -0.5,0 -0.5,0 -0.5,0 -0.5,0 -0.5,0 -0.5,0 -0.5,0 -0.5,0 -0.5,0 -0.5,0 -0.5,0 -0.5,0 -0.5,0 -0.5,0 -0.5,0 -0.5,0 -0.5,0 -0.5,0 -0.5,0 -0.5,0 -0.5,0 -0.5,0 -0.5,0 -0.5,0 -0.5,0 -0.5,0 -0.5,0 -0.5,0 -0.5,0 -0.5,0 -0.5,0 -0.5,0 -0.5,0 -0.5,0 -0.5,0 -0.5,0 -0.5,0 -0.5,0 -0.5,0 -0.5,0 -0.5,0 -0.5,0 -0.5,0 -0.5,0 -0.5,0 -0.5,0 -0.5,0 -0.5,0 -0.5,0 -0.5,0 -0.5,0 -0.5,0 -0.5,0 -0.5,0 -0.5,0 -0.5,0 -0.5,0 -0.5,0 -0.5,0 -0.5,0 -0.5,0 -0.5,0 -0.5,0 -0.5,0 -0.5,0 -0.5,0 -0.5,0 -0.5,0 -0.5,0 -0.5,0 -0.5,0 -0.5,0 -0.5,0 -0.5,0 -0.5,0 -0.5,0 -0.5,0 -0.5,0 -0.5,0 -0.5,0 -0.5,0 -0.5,0 -0.5,0 -0.5,0 -0.5,0 -0.5,0 -0.5,0 -0.5,0 -0.5,0 -0.5,0 -0.5,0 -0.5,0 -0.5,0 -0.5,0 -0.5,0 -0.5,0 -0.5,0 -0.5,0 -0.5,0 -0.5,0 -0.5,0 -0.5,0 -0.5,0 -0.5,0 0,-0.5 0,-0.5 0,-0.5 0,-0.5 0,-0.5 0,-0.5 0,-0.5 0,-0.5 0,-0.5 0,-0.5 0,-0.5 0,-0.5 0,-0.5 0,-0.5 0,-0.5 0,-0.5 0,-0.5 0,-0.5 0,-0.5 0,-0.5 0,-0.5 0,-0.5 0,-0.5 0,-0.5 0,-0.5 0,-0.5 0,-0.5 0,-0.5 0,-0.5 0,-0.5 0,-0.5 0,-0.5 0,-0.5 0,-0.5 0,-0.5 0,-0.5 0,-0.5 0,-0.5 0,-0.5 0,-0.5 0,-0.5 0,-0.5 0,-0.5 0,-0.5 0,-0.5 0,-0.5 0,-0.5 0,-0.5 0,-0.5 0,-0.5 0,-0.5 0,-0.5 0,-0.5 0,-0.5 0,-0.5 0,-0.5 0,-0.5 0,-0.5 0,-0.5 0,-0.5 0,-0.5 0,-0.5 0,-0.5 0,-0.5 0,-0.5 0,-0.5 0,-0.5 0,-0.5 0,-0.5 0,-0.5 0,-0.5 0,-0.5 0,-0.5 0,-0.5 0,-0.5 0,-0.5 0,-0.5 0,-0.5 0,-0.5 0,-0.5 0,-0.5 0,-0.5 0,-0.5 0,-0.5 0,-0.5 0,-0.5 0,-0.5 0,-0.5 0,-0.5 0,-0.5 0,-0.5 0,-0.5 0,-0.5 0,-0.5 0,-0.5 0,-0.5 0,-0.5 0,-0.5 0,-0.5 0,-0.5 0,-0.5 0,-0.5 0,-0.5 0,-0.5 0,-0.5 0,-0.5 0,-0.5 0,-0.5 0,-0.5 0,-0.5 0,-0.5 0,-0.5 0,-0.5 0,-0.5 0,-0.5 0,-0.5 0,-0.5 0,-0.5 0,-0.5 0,-0.5 0,-0.5 0,-0.5 0,-0.5 0,-0.5 0,-0.5 0,-0.5 0,-0.5 0,-0.5 0,-0.5 0,-0.5 0,-0.5 0,-0.5 0,-0.5 0,-0.5 0,-0.5 0,-0.5 0,-0.5 0,-0.5 0,-0.5 0,-0.5 0,-0.5 0,-0.5 0,-0.5 0,-0.5 0,-0.5 0,-0.5 0,-0.5 0,-0.5 0,-0.5 0,-0.5 0,-0.5 0,-0.5 0,-0.5 0,-0.5 0,-0.5 0,-0.5 0,-0.5 0,-0.5 0,-0.5 0,-0.5 0,-0.5 0,-0.5 0,-0.5 0,-0.5 0,-0.5 0,-0.5 0,-0.5 0,-0.5 0,-0.5 0,-0.5 0,-0.5 0,-0.5 0,-0.5 0,-0.5 0,-0.5 0,-0.5 0,-0.5 0,-0.5 0,-0.5 0,-0.5 0,-0.5 0,-0.5 0,-0.5 0,-0.5 0,-0.5 0,-0.5 0,-0.5 0,-0.5 0,-0.5 0,-0.5 0,-0.5 0,-0.5 0,-0.5 0,-0.5 0,-0.5 0,-0.5 0,-0.5 0,-0.5 0,-0.5 0,-0.5 0,-0.5 0,-0.5 0,-0.5 0,-0.5 0,-0.5 0,-0.5 0,-0.5 0,-0.5 0,-0.5 0,-0.5 0,-0.5 0,-0.5 0,-0.5 0,-0.5 0,-0.5 0,-0.5 0,-0.5 0,-0.5 0,-0.5 0,-0.5 0,-0.5 0,-0.5 0,-0.5 0,-0.5 0,-0.5 0,-0.5 0,-0.5 0,-0.5 0,-0.5 0,-0.5 0,-0.5 0,-0.5 0,-0.5 0,-0.5 0,-0.5 0,-0.5 0,-0.5 0,-0.5 0,-0.5 0,-0.5 0,-0.5 0,-0.5 0,-0.5 0,-0.5 0,-0.5 0,-0.5 0,-0.5 0,-0.5 0,-0.5 0,-0.5 0,-0.5 0,-0.5 0,-0.5 0,-0.5 0,-0.5 0,-0.5 0,-0.5 0,-0.5 0,-0.5 0,-0.5 0,-0.5 0,-0.5 0,-0.5 0,-0.5 0,-0.5 0,-0.5 0,-0.5 0,-0.5 0,-0.5 0,-0.5 0,-0.5 0,-0.5 0,-0.5 0,-0.5 0,-0.5 0,-0.5 0,-0.5 0,-0.5 0,-0.5 0,-0.5 0,-0.5 0,-0.5 0,-0.5 0,-0.5 0,-0.5 0,-0.5 0,-0.5 0,-0.5 0,-0.5 0,-0.5 0,-0.5 0,-0.5 0,-0.5 0,-0.5 0,-0.5 0,-0.5 0,-0.5 0,-0.5 0,-0.5 0,-0.5 0,-0.5 0,-0.5 0,-0.5 0,-0.5 0,-0.5 0,-0.5 0,-0.5 0,-0.5 0,-0.5 0,-0.5 0,-0.5 0,-0.5 0,-0.5 0,-0.5 0,-0.5 0,-0.5 0,-0.5 0,-0.5 0,-0.5 0,-0.5 0,-0.5 0,-0.5 0,-0.5 0,-0.5 0,-0.5 0,-0.5 0,-0.5 0,-0.5 0,-0.5 0,-0.5 0,-0.5 0,-0.5 0,-0.5 0,-0.5 0,-0.5 0,-0.5 0,-0.5 0,-0.5 0,-0.5 0,-0.5 0,-0.5 0,-0.5 0,-0.5 0,-0.5 0,-0.5 0,-0.5 0,-0.5 0,-0.5 0,-0.5 0,-0.5 0,-0.5 0,-0.5 0,-0.5 0,-0.5 0,-0.5 0,-0.5 0,-0.5 0,-0.5 0,-0.5 0,-0.5 0,-0.5 0,-0.5 0,-0.5 0,-0.5 0,-0.5 0,-0.5 0,-0.5 0,-0.5 0,-0.5 0,-0.5 0,-0.5 0,-0.5 0,-0.5 0,-0.5 0,-0.5 0,-0.5 0,-0.5 0,-0.5 0,-0.5 0,-0.5 0,-0.5 0,-0.5 0,-0.5 0,-0.5 0,-0.5 0,-0.5 0,-0.5 0,-0.5 0,-0.5 0,-0.5 0,-0.5 0,-0.5 0,-0.5 0,-0.5 0,-0.5 0,-0.5 0,-0.5 0,-0.5 0,-0.5"
       style="fill:#000000;fill-opacity:0" />
    <path
       style="fill:none;fill-opacity:1;stroke:#ffffff;stroke-opacity:1;stroke-width:3;stroke-miterlimit:4;stroke-dasharray:none"
       d="m 285.67597,592.68446 c 61.99544,-1.02242 124.00028,-0.28479 186,-0.5 11.70473,45.67123 -10.95932,96.22908 -50.00628,121.44512 -16.91085,10.95399 -38.18896,19.60407 -58.32217,12.73758 -54.6778,-16.0502 -92.1836,-77.88737 -77.67155,-133.6827 z"
       id="path4751"
       inkscape:connector-curvature="0"
       inkscape:export-xdpi="66.410004"
       inkscape:export-ydpi="66.410004" />
    <g
       id="g13321"
       transform="matrix(1.0081953,0,0,0.99999112,-5.6129555,19.409064)"
       style="fill:none;stroke-width:2.98779536;stroke-miterlimit:4;stroke-dasharray:none;stroke:#ffffff;stroke-opacity:1"
       inkscape:export-xdpi="66.410004"
       inkscape:export-ydpi="66.410004">
      <path
         sodipodi:nodetypes="cccc"
         inkscape:connector-curvature="0"
         id="path12626"
         d="m 381.61717,514.51584 c -20.4943,9.76148 -44.23654,12.50143 -66.42228,7.71195 -11.80671,12.40403 -19.99449,27.94162 -24.87726,44.28152 l 91.29954,10e-6"
         style="fill:none;fill-rule:evenodd;stroke:#ffffff;stroke-width:2.98779536;stroke-linecap:butt;stroke-linejoin:miter;stroke-miterlimit:4;stroke-dasharray:none;stroke-opacity:1" />
      <path
         style="fill:none;fill-rule:evenodd;stroke:#ffffff;stroke-width:2.98779536;stroke-linecap:butt;stroke-linejoin:miter;stroke-miterlimit:4;stroke-dasharray:none;stroke-opacity:1"
         d="m 381.07446,514.51584 c 20.4943,9.76148 44.23654,12.50143 66.42228,7.71195 11.80671,12.40403 19.99449,27.94162 24.87726,44.28152 l -91.29954,10e-6"
         id="path13319"
         inkscape:connector-curvature="0"
         sodipodi:nodetypes="cccc" />
    </g>
    <text
       xml:space="preserve"
       style="font-style:normal;font-weight:normal;font-size:190.76989746px;line-height:125%;font-family:sans-serif;letter-spacing:0px;word-spacing:0px;fill:#ffffff;fill-opacity:1;stroke:none;stroke-width:1px;stroke-linecap:butt;stroke-linejoin:miter;stroke-opacity:0.29012346;"
       x="323.92172"
       y="680.26764"
       id="text13325"
       sodipodi:linespacing="125%"
       transform="scale(0.99770976,1.0022955)"
       inkscape:export-xdpi="66.410004"
       inkscape:export-ydpi="66.410004"><tspan
         sodipodi:role="line"
         id="tspan13327"
         x="323.92172"
         y="680.26764"
         style="font-style:normal;font-variant:normal;font-weight:normal;font-stretch:normal;font-size:111.01373291px;font-family:VolvoBroad;-inkscape-font-specification:VolvoBroad;fill:#ffffff;stroke:none;stroke-opacity:0.29012346;fill-opacity:1;">I-58</tspan></text>
  </g>
</svg>
