<?xml version="1.0" encoding="UTF-8" standalone="no"?>
<!-- Created with Inkscape (http://www.inkscape.org/) -->

<svg
   xmlns:dc="http://purl.org/dc/elements/1.1/"
   xmlns:cc="http://creativecommons.org/ns#"
   xmlns:rdf="http://www.w3.org/1999/02/22-rdf-syntax-ns#"
   xmlns:svg="http://www.w3.org/2000/svg"
   xmlns="http://www.w3.org/2000/svg"
   xmlns:sodipodi="http://sodipodi.sourceforge.net/DTD/sodipodi-0.dtd"
   xmlns:inkscape="http://www.inkscape.org/namespaces/inkscape"
   id="svg4136"
   version="1.1"
   inkscape:version="0.91 r13725"
   width="542.08862"
   height="306.20892"
   viewBox="0 0 542.08862 306.20892"
   sodipodi:docname="ophouse-logo.svg">
  <metadata
     id="metadata4142">
    <rdf:RDF>
      <cc:Work
         rdf:about="">
        <dc:format>image/svg+xml</dc:format>
        <dc:type
           rdf:resource="http://purl.org/dc/dcmitype/StillImage" />
        <dc:title></dc:title>
      </cc:Work>
    </rdf:RDF>
  </metadata>
  <defs
     id="defs4140" />
  <sodipodi:namedview
     pagecolor="#ffffff"
     bordercolor="#666666"
     borderopacity="1"
     objecttolerance="10"
     gridtolerance="10"
     guidetolerance="10"
     inkscape:pageopacity="0"
     inkscape:pageshadow="2"
     inkscape:window-width="1600"
     inkscape:window-height="838"
     id="namedview4138"
     showgrid="false"
     fit-margin-top="0"
     fit-margin-left="0"
     fit-margin-right="0"
     fit-margin-bottom="0"
     inkscape:zoom="1.7399016"
     inkscape:cx="268.83778"
     inkscape:cy="138.79474"
     inkscape:window-x="-8"
     inkscape:window-y="-8"
     inkscape:window-maximized="1"
     inkscape:current-layer="svg4136" />
  <text
     xml:space="preserve"
     style="font-style:normal;font-weight:normal;font-size:40px;line-height:125%;font-family:sans-serif;letter-spacing:0px;word-spacing:0px;fill:#e6e6e6;fill-opacity:1;stroke:none;stroke-width:1px;stroke-linecap:butt;stroke-linejoin:miter;stroke-opacity:1"
     x="271.58875"
     y="305.18893"
     id="text4248"
     sodipodi:linespacing="125%"><tspan
       sodipodi:role="line"
       x="273.94376"
       y="305.18893"
       id="tspan4252"
       style="font-style:normal;font-variant:normal;font-weight:normal;font-stretch:normal;font-size:70px;font-family:'Scribble Box';-inkscape-font-specification:'Scribble Box';text-align:center;letter-spacing:4.71000004px;text-anchor:middle;fill:#e6e6e6">HOUSE</tspan></text>
  <text
     sodipodi:linespacing="125%"
     id="text4258"
     y="234.3994"
     x="271.2811"
     style="font-style:normal;font-weight:normal;font-size:40px;line-height:125%;font-family:sans-serif;letter-spacing:0px;word-spacing:0px;fill:#e6e6e6;fill-opacity:1;stroke:none;stroke-width:1px;stroke-linecap:butt;stroke-linejoin:miter;stroke-opacity:1"
     xml:space="preserve"><tspan
       style="font-style:normal;font-variant:normal;font-weight:normal;font-stretch:normal;font-size:70px;font-family:'Scribble Box';-inkscape-font-specification:'Scribble Box';text-align:center;letter-spacing:4.71000004px;text-anchor:middle;fill:#e6e6e6"
       id="tspan4262"
       y="234.3994"
       x="273.63608"
       sodipodi:role="line">OPPORTUNITY</tspan></text>
  <g
     id="g4294"
     transform="matrix(1.7567927,0,0,1.7314998,503.09254,4.9117801)">
    <path
       inkscape:connector-curvature="0"
       id="path4160"
       d="m -167.48411,85.11363 c -9.15495,-1.44414 -14.51181,-3.14076 -22.3985,-7.09405 -4.35491,-2.18296 -6.47342,-2.66843 -7.4375,-1.70435 -0.74751,0.74751 -5.96995,1.34805 -11.72305,1.34805 -8.38889,0 -10.375,-0.35894 -10.375,-1.875 0,-1.03125 0.42188,-1.88657 0.9375,-1.90071 0.51563,-0.0141 3.64514,-2.40476 6.95449,-5.3125 l 6.01698,-5.28679 -1.95448,-4.64735 c -4.45526,-10.59366 -1.33173,-27.86339 7.81446,-43.20539 5.76424,-9.66904 13.33598,-18.78306 14.58885,-17.56043 0.47163,0.46025 -0.10116,5.14594 -1.27289,10.41263 -1.44057,6.47507 -1.85354,11.66839 -1.27535,16.03818 0.97279,7.35204 4.89314,17.08736 6.88098,17.08736 0.73211,0 2.87311,-1.34675 4.75778,-2.99277 25.28785,-22.08574 47.95989,-40.75723 49.48984,-40.75723 1.05478,0 4.5888,3.09385 7.8534,6.87522 3.36838,3.90158 6.28714,6.30645 6.74835,5.56019 0.47383,-0.76666 4.15335,-1.15768 8.82392,-0.93771 l 8.01117,0.3773 0.17396,11.05778 0.17398,11.05778 9.82602,11.34637 c 5.40433,6.2405 10.4178,12.14297 11.14108,13.11659 1.88985,2.54402 21.36494,-4.12675 41.5168,-14.22068 14.54391,-7.28495 17.79316,-8.29618 17.79316,-5.53759 0,2.31302 -38.98588,25.46523 -49.17583,29.20362 -0.86002,0.31553 0.20238,2.27235 2.61333,4.81341 5.977,6.29956 5.3947,7.28772 -4.29444,7.28772 -6.85385,0 -8.87606,-0.48769 -11.2432,-2.71151 l -2.88627,-2.71151 -12.81929,4.00447 c -7.05061,2.20246 -18.16305,5.11553 -24.6943,6.47349 -13.76168,2.86128 -39.7946,4.09452 -50.56595,2.39541 z"
       style="fill:none;fill-opacity:1;stroke:#3b467d;stroke-opacity:1" />
    <path
       sodipodi:nodetypes="ccssssc"
       inkscape:connector-curvature="0"
       id="path4156"
       d="m -144.41816,65.78425 c -9.48714,-1.034404 -15.72444,-3.843748 -23.125,-8.12097 -3.09375,-1.69003 -5.625,-3.74333 -5.625,-4.56289 0,-2.16073 43.75186,-39.37873 45.77061,-38.93527 0.9343,0.20524 11.03097,11.03597 22.43703,24.06829 17.84789,20.39262 20.46074,23.8981 18.74681,25.15134 -5.36813,3.92528 -42.99794,5.47658 -58.20445,2.3995 z"
       style="fill:none;fill-opacity:1;stroke:#3b467d;stroke-opacity:1" />
    <path
       inkscape:connector-curvature="0"
       id="path4288"
       d="m -165.25981,84.358357 c -8.61705,-1.047304 -13.47198,-2.415557 -22.48446,-6.336739 -6.81116,-2.963422 -7.7402,-3.141162 -11.48715,-2.197668 -4.89941,1.233686 -17.99521,1.366031 -18.72252,0.189207 -0.28462,-0.460518 1.06822,-2.044192 3.0063,-3.519274 1.93808,-1.475084 5.09471,-4.098242 7.01474,-5.829241 l 3.49096,-3.14727 -1.84224,-4.673813 c -3.81269,-9.672869 -1.88007,-24.410228 4.9897,-38.049441 4.31514,-8.56725 14.08853,-22.2614612 15.1286,-21.19777693 0.25333,0.25908395 -0.11704,3.43875053 -0.82305,7.06592573 -1.90678,9.7962562 -1.69285,19.1851682 0.59526,26.1241422 2.54954,7.731808 3.95374,9.587198 6.71833,8.877014 1.19236,-0.306301 6.83144,-4.638329 12.53128,-9.626729 11.33335,-9.91874 37.49619,-31.48463842 39.7693,-32.78163677 1.05622,-0.60266133 3.038,0.76451018 7.67773,5.29661307 l 6.25401,6.1089577 8.71464,-0.465704 8.714642,-0.4657053 0,10.8861943 0,10.886193 9.482218,11.133416 c 13.163782,15.456066 13.003263,15.329155 18.167908,14.364295 6.353558,-1.186973 21.057656,-6.913832 36.638295,-14.269653 7.636646,-3.60536 14.377539,-6.390956 14.979772,-6.190214 1.942621,0.64754 -30.798542,20.643926 -43.87059,26.793586 -2.035279,0.957486 -3.844212,2.186199 -4.019843,2.730473 -0.17563,0.544274 1.200011,2.764602 3.056993,4.934064 1.856982,2.169461 3.110948,4.373868 2.786594,4.898682 -0.832263,1.346629 -11.849256,1.163143 -14.250239,-0.237335 -1.097338,-0.640071 -3.010273,-1.888364 -4.250965,-2.773985 -2.161212,-1.542703 -2.630587,-1.491501 -11.194565,1.221176 -13.92687,4.4114 -30.05449,8.1561 -39.70106,9.218258 -13.37082,1.472226 -29.71414,1.92808 -37.07059,1.033988 z m 62.95587,-16.935737 c 11.161687,-1.085577 16.566291,-2.438243 17.29134,-4.327677 0.691952,-1.803202 -1.596702,-4.972958 -14.276364,-19.772543 -13.884506,-16.205879 -26.780866,-29.594207 -28.506736,-29.594207 -2.43178,0 -32.98929,25.254999 -42.58033,35.191557 -3.9713,4.114361 -4.09662,4.410082 -2.57939,6.086603 2.40179,2.653939 16.44668,9.393273 22.06112,10.585855 12.55694,2.667263 32.32825,3.412054 48.59036,1.830412 z"
       style="opacity:1;fill:#3c467f;fill-opacity:1;fill-rule:evenodd;stroke:#3b467d;stroke-width:0.94212341;stroke-linecap:round;stroke-miterlimit:4;stroke-dasharray:none;stroke-dashoffset:0;stroke-opacity:1" />
    <path
       inkscape:connector-curvature="0"
       id="path4292"
       d="m -140.29354,55.652685 0,-7.065926 8.47911,0 8.47911,0 0,7.065926 0,7.065926 -8.47911,0 -8.47911,0 0,-7.065926 z"
       style="opacity:1;fill:#2ccd30;fill-opacity:1;fill-rule:evenodd;stroke:none;stroke-width:1;stroke-linecap:round;stroke-miterlimit:4;stroke-dasharray:none;stroke-dashoffset:0;stroke-opacity:1" />
  </g>
</svg>
